<svg xmlns="http://www.w3.org/2000/svg" xmlns:xlink="http://www.w3.org/1999/xlink" width="19.236" height="25.554" viewBox="0 0 19.236 25.554">
  <defs>
    <clipPath id="clip-path">
      <path id="Path_3293" data-name="Path 3293" d="M7553.514-1075.447h8.635a2.642,2.642,0,0,0,2.027-3.177c-.568-2.563-2.419-8.441-5.144-10.357s-3.806-1.37-3.806-1.37-3.236,1.076-4.4.722-6.139,10.483-5.513,12.965,2.605.4,2.605.4v-.4h-.8v-1.108l2.133-.852h4.265Z" transform="translate(-7545.256 1090.423)" fill="#8cb18c" stroke="#313131" stroke-width="0.2"/>
    </clipPath>
  </defs>
  <g id="Group_3210" data-name="Group 3210" transform="translate(-703.5 -298.621)">
    <path id="Path_3288" data-name="Path 3288" d="M-2622.409-800.561l.308,3.65a4.313,4.313,0,0,0,1.012,1.09,1.927,1.927,0,0,0,1.118.288l.322,1.789,3.7-.4-.151-.457-.563-3.95.377-.226.186-.5v-.226l-.186-.282-.154-.131-.9-.1-.372-1.048-.265-.576-1.117-.133-1.855.573Z" transform="translate(3329.447 1103.788)" fill="#fff"/>
    <path id="Path_3268" data-name="Path 3268" d="M7553.514-1075.447h8.635a2.642,2.642,0,0,0,2.027-3.177c-.568-2.563-2.419-8.441-5.144-10.357s-3.806-1.37-3.806-1.37-3.236,1.076-4.4.722-6.139,10.483-5.513,12.965,2.605.4,2.605.4v-.4l.975-.439h0l.358-1.522h4.265Z" transform="translate(-6841.643 1399.519)" fill="#f8d34d" stroke="#313131" stroke-width="0.2"/>
    <path id="Path_3275" data-name="Path 3275" d="M-2623.064-796.916l.457,3.514s1.029,2.538,3.621.861" transform="translate(3329.929 1100.218)" fill="none" stroke="#444440" stroke-width="0.2"/>
    <path id="Path_3276" data-name="Path 3276" d="M-2615.779-784.628s1-.092,1.292-.661" transform="translate(3324.565 1091.658)" fill="none" stroke="#444440" stroke-linecap="round" stroke-width="0.2"/>
    <g id="Ellipse_1796" data-name="Ellipse 1796" transform="translate(710.047 304.071)" fill="#9f9f9f" stroke="#444440" stroke-width="0.2">
      <ellipse cx="0.132" cy="0.264" rx="0.132" ry="0.264" stroke="none"/>
      <ellipse cx="0.132" cy="0.264" rx="0.032" ry="0.164" fill="none"/>
    </g>
    <g id="Ellipse_1797" data-name="Ellipse 1797" transform="translate(707.673 304.335)" fill="#9f9f9f" stroke="#444440" stroke-width="0.2">
      <ellipse cx="0.132" cy="0.264" rx="0.132" ry="0.264" stroke="none"/>
      <ellipse cx="0.132" cy="0.264" rx="0.032" ry="0.164" fill="none"/>
    </g>
    <path id="Path_3277" data-name="Path 3277" d="M-2616.527-793.594a.974.974,0,0,1,0,.712c-.159.437-.566,1.049.1.918" transform="translate(3325.313 1097.772)" fill="none" stroke="#444440" stroke-width="0.2"/>
    <path id="Path_3278" data-name="Path 3278" d="M-2622.771-796.342a2.236,2.236,0,0,1,1.06-.331" transform="translate(3329.712 1100.039)" fill="none" stroke="#313131" stroke-linecap="round" stroke-width="0.2"/>
    <path id="Path_3279" data-name="Path 3279" d="M0,.339A1.493,1.493,0,0,1,.511.067C.858-.05.821.026,1.06.009" transform="translate(709.865 302.969) rotate(19)" fill="none" stroke="#313131" stroke-linecap="round" stroke-width="0.2"/>
    <path id="Path_3280" data-name="Path 3280" d="M-2622.771-796.342a2.236,2.236,0,0,1,1.06-.331" transform="translate(3329.712 1100.039)" fill="none" stroke="#313131" stroke-linecap="round" stroke-width="0.2"/>
    <path id="Path_3281" data-name="Path 3281" d="M-2603.136-794.9s1.27-.285,1.23.627-1.121.926-1.121.926" transform="translate(3315.258 1098.767)" fill="none" stroke="#313131" stroke-linecap="round" stroke-width="0.2"/>
    <path id="Path_3282" data-name="Path 3282" d="M-2602.607-793.748a.856.856,0,0,1,.463.032.56.56,0,0,1,.232.33" transform="translate(3314.868 1097.899)" fill="none" stroke="#313131" stroke-linecap="round" stroke-width="0.2"/>
    <path id="Path_3283" data-name="Path 3283" d="M-2613.331-778.04c.03.039.359,1.724.359,1.724" transform="translate(3322.763 1086.322)" fill="none" stroke="#444440" stroke-width="0.2"/>
    <path id="Path_3284" data-name="Path 3284" d="M-2613.331-778.04s.052,1,.205,2,.409,2.014.409,2.014" transform="translate(3326.107 1083.288)" fill="none" stroke="#444440" stroke-width="0.2"/>
    <path id="Path_3286" data-name="Path 3286" d="M-2625.688-809.324a5.7,5.7,0,0,1-.418-.455s-.39-.15-.39-.42.39-.662.39-.662a.892.892,0,0,1-.106-.549.791.791,0,0,1,.373-.386,1.956,1.956,0,0,1,.3-.789.577.577,0,0,1,.543-.144s.087-.505.368-.655a1.081,1.081,0,0,1,.755.056.732.732,0,0,1,.359-.4,1.311,1.311,0,0,1,.648,0l.081.474-1.6,1.6Z" transform="translate(3332.455 1112.625)" fill="#fff" stroke="#2b2929" stroke-width="0.2"/>
    <path id="Path_3285" data-name="Path 3285" d="M-2617.718-809.179a.772.772,0,0,0,.318-.47,1.154,1.154,0,0,0-.219-.611s.35-.237.35-.462-.35-.437-.35-.437a1.284,1.284,0,0,0,.219-.769c-.071-.328-.5-.543-.5-.543a1.334,1.334,0,0,0-.274-.678.938.938,0,0,0-.62-.2.885.885,0,0,0-.394-.537,1.414,1.414,0,0,0-.779,0,1.2,1.2,0,0,0-.638-.391,1.058,1.058,0,0,0-.659.282s-.162.128-.361.29l-.437.356a1.187,1.187,0,0,0-.654.125,1.228,1.228,0,0,0-.4.54.412.412,0,0,0-.426.053,1.5,1.5,0,0,0-.252.615,1.714,1.714,0,0,0-.217.454,2.337,2.337,0,0,0-.077.549.459.459,0,0,0-.073.446,3.719,3.719,0,0,0,.367.792l.544-.212a.775.775,0,0,0,.538.107,1.2,1.2,0,0,0,.5-.389,1.145,1.145,0,0,0,.757.086,1.811,1.811,0,0,0,.7-.54.648.648,0,0,0,.472.239,1.3,1.3,0,0,0,.591-.308,2.083,2.083,0,0,0,.372.308.794.794,0,0,0,.343.109,1.4,1.4,0,0,0-.13.724.835.835,0,0,0,.405.47Z" transform="translate(3330.755 1113)" fill="#2e2e2e" stroke="#2e2e2e" stroke-width="0.2"/>
    <path id="Path_3287" data-name="Path 3287" d="M-2598.8-746.566l.606,3.641-6.14.7" transform="translate(3316.141 1063.151)" fill="none" stroke="#2e2e2e" stroke-width="0.2"/>
    <path id="Path_3289" data-name="Path 3289" d="M-2607.092-799.957a10.355,10.355,0,0,1,.338,3.639c-.171.905-1.1,1.291-.938,1.508a4.054,4.054,0,0,1,.938,1.946c.016.643,2.08.606,2.08.606l-.573-1.088-.624-3.806.49-.328.134-.568-.233-.609-.391-.129Z" transform="translate(3318.627 1102.456)" fill="#8cb18c" opacity="0.106"/>
    <path id="Path_3290" data-name="Path 3290" d="M-2601.91-794.694a1.529,1.529,0,0,1-.053.879c-.177.365-.867.618-.867.618a2.4,2.4,0,0,0,1.036-.441.893.893,0,0,0,.141-.759Z" transform="translate(3315.033 1098.582)" fill="#8cb18c" opacity="0.503"/>
    <path id="Path_3291" data-name="Path 3291" d="M-2601.612-789.373l.494,3.917.421-.082-.652-4Z" transform="translate(3314.049 1094.79)" fill="#8cb18c" opacity="0.292"/>
    <g id="Mask_Group_2784" data-name="Mask Group 2784" transform="translate(703.614 309.096)" clip-path="url(#clip-path)">
      <path id="Path_3292" data-name="Path 3292" d="M-2583.541-769.57s2.056-.515,3.308,7.267c.117.729,1.338,2.95.83,4.183-.518,1.256-2.776,1.558-2.646,2.837,1.4,13.793,6.985-7.02,6.985-7.02Z" transform="translate(2597.219 770.995)" fill="#c8bb57"/>
    </g>
    <path id="Path_3294" data-name="Path 3294" d="M-2619.819-754.36-2620.2-748" transform="translate(3327.821 1068.889)" fill="none" stroke="#2e2e2e" stroke-width="0.2"/>
    <path id="Path_3296" data-name="Path 3296" d="M-2621.3-754.373s-.218,1.446-.56,2.945a5.363,5.363,0,0,0-.161,1.856c.225,1.821-.138,1.714-.138,1.714l.57-.2Z" transform="translate(3329.264 1068.899)" fill="#4e7c72" opacity="0.283"/>
    <path id="Path_3297" data-name="Path 3297" d="M-2625.343-740.075s.97-5.223.628-3.723c-.145.634.274,1.2.35,1.812.225,1.821.266,1.911.266,1.911l.166-.393Z" transform="translate(3342.019 1060.521)" fill="#4e7c72" opacity="0.283"/>
    <g id="Group_3013" data-name="Group 3013" transform="translate(705.602 320.887)">
      <path id="Path_3317" data-name="Path 3317" d="M-4206.6-1755.348a3.662,3.662,0,0,0-.949.237c-.827.36-1.684.88-1.855.705-.288-.292.455-.579,1-.942a3.009,3.009,0,0,1,1.174-.509c.4-.106,4.085.248,4.085.248v2.368l-5.1-.95" transform="translate(4209.468 1755.877)" fill="#fff" stroke="#313131" stroke-width="0.2"/>
      <path id="Path_3318" data-name="Path 3318" d="M-4205.089-1753.653a4.1,4.1,0,0,0-1.5.705,2.228,2.228,0,0,0-.682.866c-.161.325-.085.4.036.434a.971.971,0,0,0,.316,0" transform="translate(4207.922 1754.24)" fill="#fff" stroke="#313131" stroke-width="0.2"/>
      <path id="Path_3319" data-name="Path 3319" d="M-4203.133-1752.321a2.45,2.45,0,0,0-1.807.645c-.917.778-.573,1.179-.573,1.179s.289.24.5,0" transform="translate(4206.604 1753.266)" fill="#fff" stroke="#313131" stroke-width="0.2"/>
      <path id="Path_3320" data-name="Path 3320" d="M-4201.258-1750.03a1.983,1.983,0,0,0-.8.078c-.516.174-1.2.642-1.12.975.072.3.608-.087,1.12-.313a.855.855,0,0,1,.494-.034,1.753,1.753,0,0,1,.485.186,5.115,5.115,0,0,0,1.328.525,1.775,1.775,0,0,0,1.278-.316" transform="translate(4204.843 1751.581)" fill="#fff" stroke="#313131" stroke-width="0.2"/>
    </g>
  </g>
</svg>
